<svg width="53" height="68" viewBox="0 0 53 68" fill="none" xmlns="http://www.w3.org/2000/svg">
<path d="M27.9251 11.22V61.9136C27.9164 62.0183 27.9302 62.1231 27.9663 62.2226C28.0026 62.3203 28.0593 62.4112 28.1332 62.4845C28.2074 62.5578 28.2967 62.6137 28.3948 62.6485C28.493 62.6835 28.5962 62.6957 28.6993 62.6835H29.9588C30.1017 62.6835 30.26 62.5386 30.3735 62.4216C31.633 61.1873 32.865 59.9235 34.0969 58.6612C34.1916 58.5547 34.2622 58.4273 34.3052 58.2894C34.3464 58.1514 34.3585 58.0065 34.3413 57.8634C34.2415 56.4109 34.1555 54.9585 34.0695 53.5077L33.8837 50.2989C33.7786 49.386 33.3381 48.5463 32.6516 47.9475L32.4658 47.7589L30.2324 45.5365C29.9675 45.2992 29.7766 44.9883 29.6819 44.6427C29.5872 44.2971 29.5941 43.9322 29.7026 43.59C29.7766 43.2165 29.964 42.876 30.2393 42.6159C30.5147 42.3557 30.8623 42.1882 31.2339 42.1393C31.5694 42.0677 31.9152 42.0677 32.2508 42.1393L33.6823 42.4588C34.3413 42.6141 35.014 42.759 35.7006 42.8952C37.1321 43.1571 37.4625 43.4329 37.662 44.9272L39.3517 57.8652L39.4945 58.9825C39.6097 59.7524 39.7095 60.5361 39.8093 61.306C39.8403 61.4824 39.8266 61.6623 39.7714 61.8333C39.7164 62.0026 39.6219 62.1562 39.4945 62.2802C39.0591 62.7202 38.7908 63.3014 38.7356 63.9213C38.6291 64.6981 38.8183 65.4871 39.2657 66.1278C39.658 66.7127 40.2447 67.1317 40.9191 67.3081C41.5937 67.4843 42.3094 67.4058 42.9305 67.0863C43.4621 66.8244 43.9061 66.409 44.2072 65.8921C44.5084 65.3754 44.6512 64.7801 44.6202 64.1814C44.6082 63.6907 44.4705 63.2108 44.2192 62.79C43.9681 62.3693 43.6136 62.0236 43.1887 61.7844C43.0234 61.6971 42.8841 61.5644 42.7859 61.4038C42.6879 61.2433 42.6346 61.0581 42.6295 60.8696L42.3283 58.6194C41.6693 53.5811 40.2516 42.8935 40.0811 41.5858C40.0089 41.3379 39.8713 41.1145 39.6854 40.9382C39.4996 40.7618 39.2708 40.6397 39.0213 40.5821C37.9184 40.3936 32.6636 39.3915 31.1323 39.1296C30.7194 39.0527 30.3409 38.8416 30.0569 38.5256C29.773 38.2112 29.5975 37.8115 29.558 37.3873C29.5115 37.0888 29.5424 36.7833 29.6474 36.5005C29.7523 36.2176 29.9296 35.9679 30.1585 35.7743C30.3683 35.5787 30.6145 35.4251 30.8812 35.3256C31.1495 35.2261 31.4335 35.1807 31.719 35.1929H39.1366C39.4738 35.2051 39.8042 35.2889 40.1087 35.4391C40.4115 35.5891 40.6818 35.8022 40.8985 36.0641L43.562 39.2291L46.8553 43.2949C46.9964 43.419 47.0978 43.5847 47.1443 43.7698C47.1907 43.9549 47.1787 44.1486 47.1134 44.3267C47.0187 44.7876 47.0359 45.2659 47.1615 45.7181C47.2889 46.1703 47.5229 46.5858 47.8428 46.9261C48.1681 47.2928 48.5827 47.5704 49.0439 47.731C49.5049 47.8916 49.9988 47.93 50.4788 47.8409C51.057 47.7414 51.5955 47.4727 52.0257 47.0676C52.4559 46.6626 52.7605 46.1389 52.8997 45.561C53.0271 44.8871 52.9273 44.1905 52.6141 43.5812C52.3026 42.9721 51.7969 42.4884 51.1808 42.2073C50.792 42.0363 50.3739 41.9472 49.9489 41.9454C49.7785 41.9578 49.6083 41.9281 49.4517 41.8599C49.295 41.7919 49.1558 41.6871 49.0473 41.5528C48.6602 41.0884 47.7448 39.9117 46.6711 38.5761C45.2396 36.6733 43.3779 34.409 42.5192 33.3493C42.1718 32.9356 41.7278 32.6144 41.2288 32.4136C40.7299 32.2129 40.1896 32.1413 39.6562 32.2023H31.2511C30.7848 32.1866 30.3443 31.9876 30.0225 31.6437C29.7008 31.3016 29.5253 30.8441 29.5322 30.3728C29.5063 30.1336 29.527 29.891 29.5941 29.6605C29.6612 29.4301 29.7713 29.2136 29.921 29.0269C30.0707 28.8401 30.2549 28.683 30.463 28.5676C30.6711 28.4524 30.9 28.3808 31.1357 28.3547L32.9682 27.9915C35.2016 27.5551 38.5946 26.8882 39.14 26.7433C39.4085 26.6717 39.6493 26.5217 39.8351 26.3121C40.021 26.1027 40.1432 25.8444 40.1862 25.5668C40.3153 24.638 40.9157 20.0204 41.4887 15.5757C42.0616 11.1327 42.5916 6.96556 42.5916 6.51515C42.6553 6.14156 42.8601 5.80812 43.1645 5.58641C43.4984 5.39088 43.7892 5.12902 44.0198 4.81826C44.2502 4.50752 44.4172 4.14964 44.5101 3.77256C44.6494 3.29072 44.6632 2.78095 44.5496 2.29214C44.436 1.80333 44.2004 1.35292 43.8649 0.984562C43.5568 0.630172 43.1662 0.357832 42.7293 0.190239C42.2922 0.0226449 41.8225 -0.0332197 41.3596 0.0261363C40.6524 0.109933 39.9969 0.448612 39.5152 0.982816C39.0333 1.51702 38.7581 2.20835 38.7392 2.9311C38.7031 3.66606 38.9439 4.38706 39.4118 4.9492C39.5909 5.10283 39.7215 5.30359 39.7939 5.53054C39.8644 5.75575 39.8713 5.9984 39.8128 6.2271C39.8128 6.45929 39.3552 9.68373 38.9112 13.1107C38.3813 17.3075 37.7653 22.0699 37.6655 22.7228C37.4935 23.7825 37.2215 24.0147 36.4198 24.1754C35.618 24.336 34.8299 24.5525 33.9421 24.7567L32.1234 25.1635C31.6296 25.2664 31.1152 25.1897 30.6729 24.9453C30.2291 24.7009 29.8866 24.3045 29.7042 23.828C29.5907 23.3426 29.6594 22.8345 29.8951 22.3964C30.1309 21.96 30.5163 21.6265 30.9792 21.4606C31.301 21.389 31.6261 21.335 31.9531 21.3H32.2249C32.2748 21.2896 32.3212 21.2634 32.3557 21.2233C32.39 21.1832 32.409 21.1342 32.4107 21.0818V20.7921C32.4107 19.3396 32.0391 14.3886 31.9375 12.6742V12.3111C31.9496 12.2046 31.9496 12.0981 31.9375 11.9916C31.8326 11.9794 31.7276 11.9794 31.6227 11.9916H30.6488C30.4991 12.0038 30.3494 11.9812 30.2084 11.927C30.0673 11.8729 29.9417 11.7874 29.8367 11.6791C29.7335 11.5691 29.6543 11.4382 29.6061 11.2933C29.558 11.1484 29.5424 10.9965 29.5598 10.8447C29.5598 10.4519 29.5598 9.0151 29.4736 8.6223V8.3325C29.4702 8.29583 29.4582 8.26091 29.4393 8.23124C29.4186 8.20156 29.3911 8.17539 29.3601 8.15966C28.8869 7.85415 28.3295 10.3663 27.9285 10.918C27.9148 10.9546 27.9148 10.9965 27.9285 11.0349V11.2235L27.9251 11.22ZM40.0967 64.1342C40.1689 63.7343 40.3841 63.3765 40.6989 63.1268C41.0155 62.8773 41.4095 62.755 41.8105 62.7812C42.2095 62.8075 42.5865 62.9819 42.8668 63.2735C43.1473 63.5633 43.3142 63.9474 43.3331 64.3542C43.3383 64.8308 43.1577 65.2899 42.8325 65.632C42.5486 65.9096 42.1683 66.0667 41.7726 66.0667C41.5282 66.0649 41.2856 66.0091 41.0637 65.9045C40.8417 65.7997 40.6439 65.6477 40.4839 65.4574C40.3255 65.2812 40.2103 65.0699 40.1432 64.8412C40.076 64.6126 40.0606 64.3716 40.0967 64.136V64.1342ZM48.9526 43.7088C49.2382 43.4591 49.5996 43.3124 49.9764 43.2967C50.4084 43.288 50.8264 43.4538 51.1396 43.7542C51.4527 44.0562 51.6369 44.4699 51.6523 44.9081C51.654 45.3794 51.4751 45.8333 51.1516 46.1721C51.0106 46.3134 50.8419 46.4234 50.6579 46.4985C50.4737 46.5736 50.2758 46.6102 50.078 46.6066C49.8371 46.6119 49.5996 46.5647 49.3795 46.4653C49.1591 46.3658 48.963 46.2191 48.8064 46.0341C48.6498 45.8491 48.5346 45.6326 48.4691 45.3969C48.4038 45.1629 48.3918 44.915 48.4313 44.6741H48.4021C48.4727 44.2988 48.667 43.9567 48.9526 43.707V43.7088ZM40.0949 2.71113C40.1673 2.31135 40.3823 1.95346 40.6972 1.70381C41.0138 1.45417 41.4079 1.33197 41.8087 1.35816C42.2079 1.38434 42.5847 1.56067 42.8652 1.85046C43.1457 2.14026 43.3126 2.52433 43.3315 2.9311C43.3349 3.40245 43.1542 3.85636 42.8307 4.19503C42.693 4.33818 42.5279 4.44992 42.3455 4.52498C42.1632 4.60005 41.9671 4.63671 41.7708 4.63147C41.5266 4.63496 41.284 4.58259 41.0603 4.47959C40.8382 4.37658 40.6404 4.2247 40.4821 4.03616C40.3255 3.85809 40.2103 3.64685 40.1432 3.41816C40.076 3.18946 40.0606 2.9503 40.0949 2.71461V2.71113Z" fill="url(#paint0_linear_217_104)"/>
<path d="M0.952269 47.1727C1.3807 47.5777 1.91581 47.8465 2.49393 47.9442C2.9912 48.0298 3.50222 47.981 3.97538 47.8029C4.44854 47.6248 4.86665 47.3228 5.1867 46.9283C5.50673 46.5878 5.74072 46.1724 5.86805 45.7202C5.99538 45.268 6.01258 44.7897 5.91624 44.3288C5.84568 44.1525 5.83191 43.957 5.87838 43.7702C5.92484 43.5851 6.02806 43.4193 6.17431 43.297L9.46757 39.2312L12.0588 36.0661C12.2756 35.8043 12.544 35.5913 12.8486 35.4411C13.1514 35.2909 13.4835 35.2072 13.8207 35.195H21.338C21.6236 35.1828 21.9075 35.2282 22.176 35.3277C22.4444 35.4272 22.6904 35.5807 22.8987 35.7763C23.1275 35.9684 23.3031 36.2197 23.4096 36.5026C23.5146 36.7853 23.5455 37.0909 23.4992 37.3893C23.4579 37.8136 23.2806 38.2117 22.9967 38.5259C22.7129 38.8401 22.3359 39.053 21.9231 39.1317C20.3917 39.3935 15.137 40.3956 14.0341 40.5842C13.7863 40.64 13.5557 40.7639 13.3699 40.9403C13.1841 41.1166 13.0464 41.3401 12.9742 41.5879C12.8021 42.8955 11.3843 53.5832 10.7271 58.6214L10.4259 60.8716C10.4208 61.062 10.364 61.2487 10.2642 61.4094C10.1627 61.57 10.0216 61.7009 9.85471 61.7865C9.4366 62.0308 9.0856 62.3782 8.83439 62.7972C8.58317 63.2164 8.44209 63.6929 8.42143 64.1817C8.38703 64.7788 8.52811 65.3741 8.82577 65.8908C9.12345 66.4075 9.56565 66.823 10.0973 67.0866C10.7184 67.4061 11.4342 67.4847 12.1087 67.3084C12.7832 67.132 13.3716 66.7131 13.7622 66.1282C14.2096 65.4876 14.3988 64.6984 14.2922 63.9216C14.2405 63.3037 13.9773 62.7223 13.5471 62.2805C13.4198 62.1566 13.3252 62.0029 13.2701 61.8336C13.2151 61.6643 13.203 61.4827 13.2323 61.3063L13.5334 58.9828L13.6917 57.8655L15.3813 44.9277C15.5809 43.4315 15.9113 43.1557 17.3428 42.8955C18.0207 42.7593 18.6935 42.6144 19.3611 42.4591L20.7926 42.1396C21.1281 42.068 21.4739 42.068 21.8095 42.1396C22.1829 42.1903 22.5304 42.3561 22.8058 42.6162C23.081 42.8763 23.2686 43.2168 23.3425 43.5904C23.4492 43.9325 23.4544 44.2991 23.3563 44.6448C23.2599 44.9904 23.0656 45.2995 22.7971 45.5352L20.5638 47.7575L20.3779 47.946C19.731 48.5431 19.3181 49.3584 19.2183 50.24L19.0324 53.4487C18.9464 54.9012 18.8604 56.3537 18.7606 57.8043C18.7417 57.9475 18.7537 58.0924 18.7967 58.2304C18.838 58.3682 18.9103 58.4958 19.0048 58.6022C20.2369 59.8662 21.467 61.1284 22.7283 62.3625C22.8437 62.4795 23.0001 62.6244 23.1429 62.6244H24.3888C24.492 62.635 24.5951 62.6244 24.6932 62.5896C24.7914 62.5546 24.879 62.4988 24.9547 62.4254C25.0287 62.3521 25.0855 62.263 25.1216 62.1635C25.1579 62.0641 25.1715 61.9593 25.163 61.8547V11.0318C25.1768 10.9951 25.1768 10.9532 25.163 10.9148C24.7758 10.3632 24.2028 7.85101 23.7313 8.15652C23.7021 8.17573 23.6798 8.20192 23.6627 8.23159C23.6453 8.26127 23.6351 8.29619 23.6317 8.33109V8.62089C23.5319 9.01369 23.5319 10.4505 23.5319 10.8433C23.5524 10.9934 23.5388 11.147 23.4923 11.2902C23.4459 11.4351 23.3684 11.566 23.2652 11.676C23.1619 11.786 23.0364 11.8715 22.8969 11.9256C22.7575 11.9797 22.6079 12.0025 22.4582 11.9902H21.4844C21.3794 11.978 21.2745 11.978 21.1694 11.9902C21.1573 12.0967 21.1573 12.2032 21.1694 12.3097V12.6728C21.0697 14.3872 20.6963 19.3381 20.6963 20.7907V21.0805C20.6979 21.1328 20.7186 21.1835 20.7514 21.2218C20.7857 21.2619 20.8305 21.2883 20.8821 21.2987H21.154C21.4808 21.3335 21.8061 21.386 22.1278 21.4593C22.5924 21.6216 22.9796 21.955 23.2118 22.3932C23.4459 22.8315 23.5078 23.343 23.3873 23.8247C23.2066 24.3153 22.8539 24.7221 22.3979 24.9682C21.942 25.2144 21.412 25.2826 20.9096 25.1603L19.091 24.7535C18.2032 24.551 17.4151 24.3328 16.6133 24.1721C15.8115 24.0133 15.5396 23.7793 15.3675 22.7198C15.2677 22.0668 14.6518 17.3026 14.1218 13.1075C13.6779 9.68057 13.2202 6.45615 13.2202 6.22396C13.1583 5.99527 13.1634 5.75086 13.234 5.52565C13.3045 5.2987 13.4387 5.09794 13.6211 4.94606C14.0891 4.38392 14.33 3.66292 14.2939 2.92794C14.2749 2.20521 13.9997 1.51388 13.5179 0.979673C13.0361 0.445469 12.3823 0.10679 11.6734 0.022993C11.2105 -0.036363 10.7391 0.0195015 10.3038 0.187096C9.86674 0.354689 9.47617 0.627029 9.16817 0.981419C8.84299 1.35327 8.61587 1.80368 8.51091 2.289C8.40595 2.77433 8.42488 3.27885 8.56768 3.75545C8.66061 4.13427 8.82751 4.49041 9.05806 4.80116C9.28862 5.11365 9.58113 5.37377 9.9132 5.56929C10.216 5.79101 10.4225 6.12446 10.4862 6.49805C10.5584 6.94844 11.0867 11.1156 11.6596 15.5586C12.2326 20.0015 12.8331 24.619 12.9621 25.5496C13.0051 25.8272 13.1273 26.0855 13.3131 26.2951C13.499 26.5045 13.7398 26.6529 14.0083 26.7263C14.552 26.8712 17.945 27.5398 20.1801 27.9745L22.0126 28.3377C22.4616 28.4301 22.8573 28.6902 23.124 29.0673C23.3891 29.4444 23.5043 29.9105 23.4441 30.3696C23.4526 30.8428 23.2755 31.2984 22.9555 31.6405C22.6336 31.9828 22.1931 32.1835 21.727 32.1993H13.3217C12.7883 32.1381 12.2481 32.2114 11.7491 32.4104C11.2501 32.6112 10.8062 32.9324 10.4586 33.3463C9.60005 34.4058 7.81062 36.6719 6.30681 38.5731C5.23315 39.9085 4.31606 41.0852 3.93064 41.5496C3.82396 41.6787 3.69148 41.7817 3.54007 41.8498C3.38865 41.918 3.22347 41.9493 3.05829 41.9424C2.63503 41.9424 2.21519 42.0314 1.82633 42.2043C1.24133 42.4451 0.75956 42.8869 0.465336 43.4525C0.24854 43.7702 0.102287 44.1334 0.0369041 44.5138C-0.0267585 44.8962 -0.00783185 45.2873 0.0919635 45.6591C0.227891 46.2369 0.527277 46.7607 0.955709 47.1674L0.952269 47.1727ZM12.8658 64.8468C12.7918 65.0755 12.6662 65.2851 12.5027 65.4579C12.3427 65.6464 12.1448 65.8 11.9229 65.9048C11.7009 66.0096 11.4583 66.0654 11.214 66.0672C10.8183 66.0672 10.438 65.9099 10.1541 65.6325C9.82889 65.2902 9.64824 64.8311 9.65339 64.3545C9.62414 63.9128 9.7704 63.4798 10.0577 63.1464C10.3451 62.8147 10.7511 62.6104 11.1865 62.5825C11.6218 62.5528 12.0502 62.7013 12.3771 62.9928C12.704 63.2844 12.9053 63.6963 12.9329 64.1363C12.9638 64.3754 12.9415 64.6182 12.8675 64.8468H12.8658ZM12.8623 3.422C12.7883 3.65069 12.6645 3.8602 12.501 4.03302C12.3427 4.22156 12.1448 4.37344 11.9229 4.47645C11.6992 4.57945 11.4583 4.63183 11.2123 4.62833C11.0161 4.63356 10.82 4.59691 10.6376 4.52184C10.4552 4.44676 10.29 4.33505 10.1524 4.19188C9.82889 3.8532 9.64824 3.39931 9.65167 2.92794C9.62242 2.48628 9.76868 2.05333 10.056 1.71988C10.3434 1.38818 10.7494 1.18567 11.1847 1.156C11.62 1.12632 12.0485 1.27471 12.3754 1.56625C12.7023 1.8578 12.9036 2.2698 12.9312 2.70973C12.9604 2.9489 12.9363 3.19156 12.8623 3.42025V3.422ZM1.89001 43.7563C2.20315 43.4541 2.62126 43.2901 3.05314 43.2988C3.42994 43.3145 3.79128 43.4594 4.07689 43.7109C4.36252 43.9622 4.55695 44.3027 4.62749 44.678H4.59824C4.63781 44.9188 4.62578 45.165 4.56039 45.4007C4.495 45.6364 4.37972 45.8529 4.22315 46.0379C4.06657 46.2229 3.87042 46.3696 3.65018 46.4691C3.42994 46.5686 3.19078 46.6158 2.95161 46.6106C2.75202 46.6175 2.55416 46.5825 2.37005 46.5076C2.18595 46.4325 2.01732 46.3191 1.87796 46.1759C1.55448 45.8372 1.37382 45.3832 1.37726 44.9119C1.39274 44.4737 1.57685 44.06 1.89001 43.758V43.7563Z" fill="url(#paint1_linear_217_104)"/>
<defs>
<linearGradient id="paint0_linear_217_104" x1="23.6529" y1="59.8849" x2="54.5803" y2="7.089" gradientUnits="userSpaceOnUse">
<stop offset="0.2" stop-color="#5536FE"/>
<stop offset="0.26" stop-color="#6333FD"/>
<stop offset="0.62" stop-color="#B726FD"/>
<stop offset="1" stop-color="#00E1DD"/>
</linearGradient>
<linearGradient id="paint1_linear_217_104" x1="0.202083" y1="61.2959" x2="29.9797" y2="10.4634" gradientUnits="userSpaceOnUse">
<stop offset="0.63" stop-color="#5536FE"/>
<stop offset="0.64" stop-color="#6333FD"/>
<stop offset="0.73" stop-color="#B726FD"/>
</linearGradient>
</defs>
</svg>
